<?xml version="1.0" encoding="UTF-8"?>
<svg id="Logo" xmlns="http://www.w3.org/2000/svg" xmlns:xlink="http://www.w3.org/1999/xlink" viewBox="0 0 1000 1000">
  <defs>
    <style>
      .cls-1 {
        fill: url(#linear-gradient-2);
      }

      .cls-2 {
        fill: url(#linear-gradient-4);
      }

      .cls-3 {
        fill: url(#linear-gradient-3);
      }

      .cls-4 {
        fill: url(#linear-gradient-5);
      }

      .cls-5 {
        fill: url(#linear-gradient-6);
      }

      .cls-6 {
        fill: url(#linear-gradient);
      }
    </style>
    <linearGradient id="linear-gradient" x1="481.54" y1="546.29" x2="728.75" y2="546.29" gradientUnits="userSpaceOnUse">
      <stop offset="0" stop-color="#f59e0b"/>
      <stop offset=".12" stop-color="#c48111"/>
      <stop offset=".27" stop-color="#8d6118"/>
      <stop offset=".42" stop-color="#60461f"/>
      <stop offset=".56" stop-color="#3c3123"/>
      <stop offset=".69" stop-color="#232327"/>
      <stop offset=".81" stop-color="#141a29"/>
      <stop offset=".91" stop-color="#0f172a"/>
    </linearGradient>
    <linearGradient id="linear-gradient-2" x1="446.91" y1="431.58" x2="665.88" y2="431.58" gradientUnits="userSpaceOnUse">
      <stop offset="0" stop-color="#f1f5f9"/>
      <stop offset=".91" stop-color="#0f172a"/>
    </linearGradient>
    <linearGradient id="linear-gradient-3" x1="698.1" y1="425.35" x2="945.3" y2="425.35" gradientTransform="translate(1216.55 879.06) rotate(-180)" xlink:href="#linear-gradient"/>
    <linearGradient id="linear-gradient-4" x1="663.46" y1="310.64" x2="882.43" y2="310.64" gradientTransform="translate(1216.55 879.06) rotate(-180)" gradientUnits="userSpaceOnUse">
      <stop offset="0" stop-color="#fff"/>
      <stop offset=".91" stop-color="#0f172a"/>
    </linearGradient>
    <linearGradient id="linear-gradient-5" x1="266.4" y1="498.03" x2="371.59" y2="583.05" gradientUnits="userSpaceOnUse">
      <stop offset="0" stop-color="#fff"/>
      <stop offset="1" stop-color="#0f172a"/>
    </linearGradient>
    <linearGradient id="linear-gradient-6" x1="235.13" y1="199.18" x2="340.32" y2="284.21" gradientTransform="translate(968.82 701.06) rotate(-180)" xlink:href="#linear-gradient-5"/>
  </defs>
  <path class="cls-6" d="M670.66,590.23l-.09.15c-26.55,38.07-58.63,71.12-93.27,103.37-14.82,13.13-28.9,30.18-48.44,35.14-12.95,3.14-28.02-1.12-37.94-9.53-17.92-15.46-7.1-30.76,7.14-44.61,6.97-6.55,13.84-13.13,20.61-19.77,27.56-27.02,53.55-55.09,77.78-86.35,7.92-10.29,16.27-21.27,23.89-32.62,8.18-12.14,15.55-24.7,20.77-37.3.17-.42.34-.83.51-1.25,14.26-29.3,25.2-61.08,23.9-86.54-1.28-17.91-7.8-34.61-18.21-48.27,4.59.48,9.17,1.22,13.72,2.29,37.92,9.11,64.86,42.02,67.62,80.54,2.28,44.64-33.08,108.76-57.99,144.75Z"/>
  <path class="cls-1" d="M641.87,497.46c12.64-31.69,3.15-59.43-33.45-57-8.2.55-16.49,1.99-24.8,4.11-24.34,6.21-48.76,18.25-70.92,30.69-13.85,7.45-26.77,18.24-41.1,24-28.98,10.67-27.7-25.95-19.94-44.23,3.09-8.16,7.44-15.58,12.68-22.35,14.99-19.39,37.32-33.5,58.47-44.85,21.63-10.82,44.69-16.55,70.7-21.65,18.03-3.14,36.19-5.37,54.05-3.53,10.41,13.66,16.93,30.36,18.21,48.27,1.3,25.46-9.64,57.24-23.9,86.54Z"/>
  <path class="cls-3" d="M329.34,409.77l.09-.15c26.55-38.07,58.63-71.12,93.27-103.37,14.82-13.13,28.9-30.18,48.44-35.14,12.95-3.14,28.02,1.12,37.94,9.53,17.92,15.46,7.1,30.76-7.14,44.61-6.97,6.55-13.84,13.13-20.61,19.77-27.56,27.02-53.55,55.09-77.78,86.35-7.92,10.29-16.27,21.27-23.89,32.62-8.18,12.14-15.55,24.7-20.77,37.3-.17.42-.34.83-.51,1.25-14.26,29.3-25.2,61.08-23.9,86.54,1.28,17.91,7.8,34.61,18.21,48.27-4.59-.48-9.17-1.22-13.72-2.29-37.92-9.11-64.86-42.02-67.62-80.54-2.28-44.64,33.08-108.76,57.99-144.75Z"/>
  <path class="cls-2" d="M358.13,502.54c-12.64,31.69-3.15,59.43,33.45,57,8.2-.55,16.49-1.99,24.8-4.11,24.34-6.21,48.76-18.25,70.92-30.69,13.85-7.45,26.77-18.24,41.1-24,28.98-10.67,27.7,25.95,19.94,44.23-3.09,8.16-7.44,15.58-12.68,22.35-14.99,19.39-37.32,33.5-58.47,44.85-21.63,10.82-44.69,16.55-70.7,21.65-18.03,3.14-36.19,5.37-54.05,3.53-10.41-13.66-16.93-30.36-18.21-48.27-1.3-25.46,9.64-57.24,23.9-86.54Z"/>
  <path class="cls-4" d="M352.46,637.3c-10.41-13.66-16.93-30.36-18.21-48.27-1.3-25.46,9.64-57.24,23.9-86.54-2.35,5.89-3.93,11.65-4.72,17.09-10.23,24.18-17.17,48.88-16.12,69.45,1.28,17.91,7.8,34.61,18.21,48.27"/>
  <path class="cls-5" d="M647.63,362.62c10.41,13.66,16.93,30.36,18.21,48.27,1.3,25.46-9.64,57.24-23.9,86.54,2.35-5.89,3.93-11.65,4.72-17.09,10.23-24.18,17.17-48.88,16.12-69.45-1.28-17.91-7.8-34.61-18.21-48.27"/>
</svg>